<svg width="40" height="40" viewBox="0 0 40 40" fill="none" xmlns="http://www.w3.org/2000/svg">
<g opacity="0.2">
<path d="M3.33334 13.962C3.33334 13.3782 3.33334 13.0863 3.35771 12.8404C3.59268 10.4688 5.46879 8.59268 7.84036 8.35771C8.08625 8.33334 8.39394 8.33334 9.00932 8.33334C9.24643 8.33334 9.36499 8.33334 9.46565 8.32725C10.751 8.2494 11.8766 7.43814 12.3569 6.24334C12.3945 6.14977 12.4297 6.0443 12.5 5.83334C12.5703 5.62239 12.6055 5.51691 12.6431 5.42335C13.1234 4.22855 14.249 3.41729 15.5344 3.33944C15.635 3.33334 15.7462 3.33334 15.9686 3.33334H24.0314C24.2538 3.33334 24.365 3.33334 24.4657 3.33944C25.751 3.41729 26.8766 4.22855 27.3569 5.42335C27.3945 5.51691 27.4297 5.62239 27.5 5.83334C27.5703 6.0443 27.6055 6.14977 27.6431 6.24334C28.1234 7.43814 29.249 8.2494 30.5344 8.32725C30.635 8.33334 30.7536 8.33334 30.9907 8.33334C31.6061 8.33334 31.9138 8.33334 32.1597 8.35771C34.5312 8.59268 36.4073 10.4688 36.6423 12.8404C36.6667 13.0863 36.6667 13.3782 36.6667 13.962V27C36.6667 29.8003 36.6667 31.2004 36.1217 32.27C35.6423 33.2108 34.8774 33.9757 33.9366 34.455C32.8671 35 31.4669 35 28.6667 35H11.3333C8.53308 35 7.13295 35 6.06339 34.455C5.12258 33.9757 4.35768 33.2108 3.87831 32.27C3.33334 31.2004 3.33334 29.8003 3.33334 27V13.962Z" stroke="#050826" stroke-width="3.33333" stroke-linecap="round" stroke-linejoin="round"/>
<path d="M20 27.5C23.6819 27.5 26.6667 24.5152 26.6667 20.8333C26.6667 17.1514 23.6819 14.1667 20 14.1667C16.3181 14.1667 13.3333 17.1514 13.3333 20.8333C13.3333 24.5152 16.3181 27.5 20 27.5Z" stroke="#050826" stroke-width="3.33333" stroke-linecap="round" stroke-linejoin="round"/>
</g>
</svg>
