<svg width="16" height="16" viewBox="0 0 16 16" fill="none" xmlns="http://www.w3.org/2000/svg">
<g opacity="0.8" clip-path="url(#clip0_42_194)">
<path d="M1.66666 14.3333L5.36617 12.9105C5.6028 12.8194 5.72111 12.7739 5.8318 12.7145C5.93012 12.6617 6.02386 12.6008 6.11202 12.5324C6.21127 12.4554 6.30091 12.3658 6.48018 12.1865L14 4.66668C14.7364 3.9303 14.7364 2.73639 14 2.00001C13.2636 1.26363 12.0697 1.26363 11.3333 2.00001L3.81351 9.51982C3.63424 9.69909 3.54461 9.78873 3.46758 9.88798C3.39917 9.97614 3.33826 10.0699 3.28548 10.1682C3.22606 10.2789 3.18056 10.3972 3.08954 10.6338L1.66666 14.3333ZM1.66666 14.3333L3.03874 10.766C3.13692 10.5107 3.18601 10.3831 3.27022 10.3246C3.3438 10.2735 3.43486 10.2542 3.52285 10.271C3.62355 10.2902 3.72025 10.3869 3.91365 10.5803L5.41971 12.0864C5.61311 12.2798 5.7098 12.3765 5.72903 12.4772C5.74584 12.5652 5.72651 12.6562 5.67542 12.7298C5.61695 12.814 5.48932 12.8631 5.23404 12.9613L1.66666 14.3333Z" stroke="#050826" stroke-width="1.5" stroke-linecap="round" stroke-linejoin="round"/>
</g>
<defs>
<clipPath id="clip0_42_194">
<rect width="16" height="16" fill="white"/>
</clipPath>
</defs>
</svg>
